<svg width="328" height="276" viewBox="0 0 328 276" fill="none" xmlns="http://www.w3.org/2000/svg">
<rect width="328" height="276" rx="5" fill="white" fill-opacity="0.05"/>
<rect x="40" y="32" width="50" height="50" rx="3" fill="white" fill-opacity="0.03"/>
<path d="M58 50.5C58 49.5717 58.3687 48.6815 59.0251 48.0251C59.6815 47.3687 60.5717 47 61.5 47H65V54H61.5C60.5717 54 59.6815 53.6313 59.0251 52.9749C58.3687 52.3185 58 51.4283 58 50.5Z" stroke="white" stroke-width="2" stroke-linecap="round" stroke-linejoin="round"/>
<path d="M65 47H68.5C68.9596 47 69.4148 47.0905 69.8394 47.2664C70.264 47.4423 70.6499 47.7001 70.9749 48.0251C71.2999 48.3501 71.5577 48.736 71.7336 49.1606C71.9095 49.5852 72 50.0404 72 50.5C72 50.9596 71.9095 51.4148 71.7336 51.8394C71.5577 52.264 71.2999 52.6499 70.9749 52.9749C70.6499 53.2999 70.264 53.5577 69.8394 53.7336C69.4148 53.9095 68.9596 54 68.5 54H65V47Z" stroke="white" stroke-width="2" stroke-linecap="round" stroke-linejoin="round"/>
<path d="M65 57.5C65 57.0404 65.0905 56.5852 65.2664 56.1606C65.4423 55.736 65.7001 55.3501 66.0251 55.0251C66.3501 54.7001 66.736 54.4423 67.1606 54.2664C67.5852 54.0905 68.0404 54 68.5 54C68.9596 54 69.4148 54.0905 69.8394 54.2664C70.264 54.4423 70.6499 54.7001 70.9749 55.0251C71.2999 55.3501 71.5577 55.736 71.7336 56.1606C71.9095 56.5852 72 57.0404 72 57.5C72 57.9596 71.9095 58.4148 71.7336 58.8394C71.5577 59.264 71.2999 59.6499 70.9749 59.9749C70.6499 60.2999 70.264 60.5577 69.8394 60.7336C69.4148 60.9095 68.9596 61 68.5 61C68.0404 61 67.5852 60.9095 67.1606 60.7336C66.736 60.5577 66.3501 60.2999 66.0251 59.9749C65.7001 59.6499 65.4423 59.264 65.2664 58.8394C65.0905 58.4148 65 57.9596 65 57.5V57.5Z" stroke="white" stroke-width="2" stroke-linecap="round" stroke-linejoin="round"/>
<path d="M58 64.5C58 63.5717 58.3687 62.6815 59.0251 62.0251C59.6815 61.3687 60.5717 61 61.5 61H65V64.5C65 65.4283 64.6313 66.3185 63.9749 66.9749C63.3185 67.6313 62.4283 68 61.5 68C60.5717 68 59.6815 67.6313 59.0251 66.9749C58.3687 66.3185 58 65.4283 58 64.5Z" stroke="white" stroke-width="2" stroke-linecap="round" stroke-linejoin="round"/>
<path d="M58 57.5C58 56.5717 58.3687 55.6815 59.0251 55.0251C59.6815 54.3687 60.5717 54 61.5 54H65V61H61.5C60.5717 61 59.6815 60.6313 59.0251 59.9749C58.3687 59.3185 58 58.4283 58 57.5Z" stroke="white" stroke-width="2" stroke-linecap="round" stroke-linejoin="round"/>
<path d="M52.276 123.448C52.276 124.888 52 126.094 51.448 127.066C50.896 128.038 50.092 128.77 49.036 129.262C47.992 129.754 46.732 130 45.256 130H41.62V117.148H45.652C46.996 117.148 48.16 117.388 49.144 117.868C50.14 118.348 50.908 119.056 51.448 119.992C52 120.916 52.276 122.068 52.276 123.448ZM49.45 123.52C49.45 122.572 49.312 121.792 49.036 121.18C48.76 120.568 48.346 120.118 47.794 119.83C47.254 119.53 46.588 119.38 45.796 119.38H44.338V127.75H45.508C46.84 127.75 47.83 127.396 48.478 126.688C49.126 125.98 49.45 124.924 49.45 123.52ZM58.7782 119.992C59.6902 119.992 60.4702 120.166 61.1182 120.514C61.7782 120.862 62.2882 121.366 62.6482 122.026C63.0082 122.686 63.1882 123.496 63.1882 124.456V125.752H56.8522C56.8762 126.508 57.0982 127.102 57.5182 127.534C57.9502 127.966 58.5442 128.182 59.3002 128.182C59.9362 128.182 60.5122 128.122 61.0282 128.002C61.5442 127.87 62.0782 127.672 62.6302 127.408V129.478C62.1502 129.718 61.6402 129.892 61.1002 130C60.5722 130.12 59.9302 130.18 59.1742 130.18C58.1902 130.18 57.3202 130 56.5642 129.64C55.8082 129.268 55.2142 128.71 54.7822 127.966C54.3502 127.222 54.1342 126.286 54.1342 125.158C54.1342 124.006 54.3262 123.052 54.7102 122.296C55.1062 121.528 55.6522 120.952 56.3482 120.568C57.0442 120.184 57.8542 119.992 58.7782 119.992ZM58.7962 121.9C58.2802 121.9 57.8482 122.068 57.5002 122.404C57.1642 122.74 56.9662 123.262 56.9062 123.97H60.6682C60.6682 123.574 60.5962 123.22 60.4522 122.908C60.3202 122.596 60.1162 122.35 59.8402 122.17C59.5642 121.99 59.2162 121.9 58.7962 121.9ZM72.221 127.084C72.221 127.744 72.065 128.308 71.753 128.776C71.441 129.232 70.973 129.58 70.349 129.82C69.725 130.06 68.951 130.18 68.027 130.18C67.343 130.18 66.755 130.132 66.263 130.036C65.771 129.952 65.279 129.808 64.787 129.604V127.39C65.315 127.63 65.885 127.828 66.497 127.984C67.109 128.14 67.649 128.218 68.117 128.218C68.645 128.218 69.017 128.14 69.233 127.984C69.461 127.828 69.575 127.624 69.575 127.372C69.575 127.204 69.527 127.054 69.431 126.922C69.347 126.79 69.155 126.64 68.855 126.472C68.555 126.304 68.087 126.088 67.451 125.824C66.839 125.56 66.335 125.302 65.939 125.05C65.543 124.786 65.249 124.474 65.057 124.114C64.865 123.742 64.769 123.28 64.769 122.728C64.769 121.816 65.123 121.132 65.831 120.676C66.539 120.22 67.481 119.992 68.657 119.992C69.269 119.992 69.851 120.052 70.403 120.172C70.955 120.292 71.525 120.49 72.113 120.766L71.303 122.692C70.979 122.548 70.667 122.422 70.367 122.314C70.067 122.206 69.773 122.122 69.485 122.062C69.209 122.002 68.921 121.972 68.621 121.972C68.225 121.972 67.925 122.026 67.721 122.134C67.529 122.242 67.433 122.404 67.433 122.62C67.433 122.776 67.481 122.92 67.577 123.052C67.685 123.172 67.883 123.304 68.171 123.448C68.471 123.592 68.909 123.784 69.485 124.024C70.049 124.252 70.535 124.492 70.943 124.744C71.351 124.984 71.663 125.29 71.879 125.662C72.107 126.022 72.221 126.496 72.221 127.084ZM76.9923 120.172V130H74.3103V120.172H76.9923ZM75.6603 116.32C76.0563 116.32 76.3983 116.416 76.6863 116.608C76.9743 116.788 77.1183 117.13 77.1183 117.634C77.1183 118.126 76.9743 118.468 76.6863 118.66C76.3983 118.852 76.0563 118.948 75.6603 118.948C75.2523 118.948 74.9043 118.852 74.6163 118.66C74.3403 118.468 74.2023 118.126 74.2023 117.634C74.2023 117.13 74.3403 116.788 74.6163 116.608C74.9043 116.416 75.2523 116.32 75.6603 116.32ZM82.9806 119.992C83.5806 119.992 84.1206 120.112 84.6006 120.352C85.0806 120.592 85.4886 120.952 85.8246 121.432H85.8966L86.1126 120.172H88.3806V130.018C88.3806 130.954 88.1946 131.74 87.8226 132.376C87.4626 133.012 86.9166 133.492 86.1846 133.816C85.4526 134.152 84.5466 134.32 83.4666 134.32C82.7706 134.32 82.1226 134.278 81.5226 134.194C80.9346 134.11 80.3586 133.96 79.7946 133.744V131.602C80.2026 131.77 80.6106 131.908 81.0186 132.016C81.4386 132.136 81.8646 132.22 82.2966 132.268C82.7406 132.328 83.1846 132.358 83.6286 132.358C84.3246 132.358 84.8406 132.172 85.1766 131.8C85.5246 131.428 85.6986 130.87 85.6986 130.126V129.928C85.6986 129.724 85.7046 129.514 85.7166 129.298C85.7406 129.082 85.7586 128.89 85.7706 128.722H85.6986C85.3626 129.238 84.9606 129.61 84.4926 129.838C84.0246 130.066 83.4966 130.18 82.9086 130.18C81.7446 130.18 80.8326 129.736 80.1726 128.848C79.5246 127.948 79.2006 126.7 79.2006 125.104C79.2006 124.024 79.3506 123.106 79.6506 122.35C79.9506 121.582 80.3826 121 80.9466 120.604C81.5226 120.196 82.2006 119.992 82.9806 119.992ZM83.8266 122.17C83.4066 122.17 83.0526 122.284 82.7646 122.512C82.4886 122.728 82.2786 123.058 82.1346 123.502C82.0026 123.934 81.9366 124.48 81.9366 125.14C81.9366 126.124 82.0926 126.862 82.4046 127.354C82.7166 127.834 83.2026 128.074 83.8626 128.074C84.2106 128.074 84.5106 128.032 84.7626 127.948C85.0146 127.852 85.2186 127.702 85.3746 127.498C85.5426 127.282 85.6686 127.006 85.7526 126.67C85.8366 126.334 85.8786 125.926 85.8786 125.446V125.122C85.8786 124.414 85.8066 123.844 85.6626 123.412C85.5186 122.98 85.2966 122.668 84.9966 122.476C84.6966 122.272 84.3066 122.17 83.8266 122.17ZM96.7653 119.992C97.8213 119.992 98.6673 120.28 99.3033 120.856C99.9393 121.42 100.257 122.332 100.257 123.592V130H97.5753V124.258C97.5753 123.55 97.4493 123.022 97.1973 122.674C96.9453 122.314 96.5433 122.134 95.9913 122.134C95.1753 122.134 94.6173 122.416 94.3173 122.98C94.0173 123.532 93.8673 124.33 93.8673 125.374V130H91.1853V120.172H93.2373L93.5973 121.432H93.7413C93.9573 121.096 94.2213 120.826 94.5332 120.622C94.8453 120.406 95.1933 120.25 95.5773 120.154C95.9613 120.046 96.3573 119.992 96.7653 119.992Z" fill="white"/>
<path d="M45.36 166H43.632V156.064H40.208V154.576H48.784V156.064H45.36V166ZM52.0396 157.088C52.0396 157.355 52.029 157.621 52.0076 157.888C51.9863 158.155 51.965 158.373 51.9436 158.544H52.0556C52.237 158.245 52.461 158 52.7276 157.808C53.005 157.616 53.309 157.472 53.6396 157.376C53.981 157.28 54.3276 157.232 54.6796 157.232C55.3623 157.232 55.933 157.344 56.3916 157.568C56.861 157.781 57.213 158.123 57.4476 158.592C57.693 159.051 57.8156 159.648 57.8156 160.384V166H56.1356V160.624C56.1356 159.952 55.9916 159.451 55.7036 159.12C55.4263 158.779 54.9783 158.608 54.3596 158.608C53.773 158.608 53.309 158.725 52.9676 158.96C52.637 159.195 52.397 159.541 52.2476 160C52.109 160.448 52.0396 161.003 52.0396 161.664V166H50.3436V153.84H52.0396V157.088ZM63.8138 157.216C64.5711 157.216 65.2218 157.376 65.7658 157.696C66.3098 158.005 66.7258 158.453 67.0138 159.04C67.3124 159.627 67.4618 160.32 67.4618 161.12V162.048H61.6698C61.6911 162.933 61.9204 163.611 62.3578 164.08C62.8058 164.549 63.4298 164.784 64.2298 164.784C64.7844 164.784 65.2751 164.736 65.7018 164.64C66.1391 164.533 66.5871 164.379 67.0458 164.176V165.584C66.6191 165.776 66.1818 165.92 65.7338 166.016C65.2964 166.112 64.7738 166.16 64.1658 166.16C63.3338 166.16 62.5978 165.995 61.9578 165.664C61.3178 165.333 60.8164 164.843 60.4538 164.192C60.1018 163.531 59.9258 162.72 59.9258 161.76C59.9258 160.789 60.0858 159.968 60.4058 159.296C60.7364 158.624 61.1898 158.112 61.7658 157.76C62.3524 157.397 63.0351 157.216 63.8138 157.216ZM63.8138 158.528C63.2058 158.528 62.7151 158.725 62.3418 159.12C61.9791 159.515 61.7658 160.075 61.7018 160.8H65.7658C65.7658 160.352 65.6964 159.957 65.5578 159.616C65.4191 159.275 65.2058 159.008 64.9178 158.816C64.6298 158.624 64.2618 158.528 63.8138 158.528ZM78.0383 157.216C79.0729 157.216 79.9049 157.589 80.5343 158.336C81.1743 159.083 81.4943 160.197 81.4943 161.68C81.4943 162.651 81.3503 163.472 81.0623 164.144C80.7743 164.816 80.3689 165.323 79.8463 165.664C79.3236 165.995 78.7156 166.16 78.0223 166.16C77.5849 166.16 77.2009 166.107 76.8703 166C76.5396 165.883 76.2569 165.733 76.0223 165.552C75.7983 165.36 75.6009 165.157 75.4303 164.944H75.3183C75.3503 165.136 75.3769 165.365 75.3983 165.632C75.4196 165.888 75.4303 166.117 75.4303 166.32V169.84H73.7343V157.376H75.1103L75.3503 158.528H75.4303C75.6009 158.293 75.8036 158.075 76.0383 157.872C76.2729 157.669 76.5556 157.509 76.8863 157.392C77.2169 157.275 77.6009 157.216 78.0383 157.216ZM77.6383 158.608C77.1049 158.608 76.6783 158.715 76.3583 158.928C76.0383 159.131 75.8036 159.44 75.6543 159.856C75.5156 160.261 75.4409 160.779 75.4303 161.408V161.664C75.4303 162.325 75.4996 162.891 75.6383 163.36C75.7769 163.819 76.0063 164.171 76.3263 164.416C76.6569 164.651 77.1049 164.768 77.6703 164.768C78.1503 164.768 78.5396 164.64 78.8383 164.384C79.1476 164.117 79.3769 163.749 79.5263 163.28C79.6756 162.811 79.7503 162.267 79.7503 161.648C79.7503 160.709 79.5796 159.968 79.2383 159.424C78.8969 158.88 78.3636 158.608 77.6383 158.608ZM87.9121 157.216C88.0615 157.216 88.2268 157.227 88.4081 157.248C88.5895 157.259 88.7388 157.275 88.8561 157.296L88.6801 158.88C88.5628 158.848 88.4241 158.821 88.2641 158.8C88.1041 158.779 87.9548 158.768 87.8161 158.768C87.4961 158.768 87.1868 158.832 86.8881 158.96C86.6001 159.077 86.3388 159.253 86.1041 159.488C85.8695 159.712 85.6828 159.989 85.5441 160.32C85.4161 160.651 85.3521 161.029 85.3521 161.456V166H83.6561V157.376H85.0001L85.2241 158.912H85.2881C85.4695 158.603 85.6881 158.32 85.9441 158.064C86.2001 157.808 86.4935 157.605 86.8241 157.456C87.1548 157.296 87.5175 157.216 87.9121 157.216ZM97.7405 161.68C97.7405 162.395 97.6445 163.029 97.4525 163.584C97.2605 164.139 96.9885 164.608 96.6365 164.992C96.2845 165.376 95.8578 165.669 95.3565 165.872C94.8552 166.064 94.2898 166.16 93.6605 166.16C93.0845 166.16 92.5512 166.064 92.0605 165.872C91.5698 165.669 91.1432 165.376 90.7805 164.992C90.4285 164.608 90.1512 164.139 89.9485 163.584C89.7458 163.029 89.6445 162.389 89.6445 161.664C89.6445 160.715 89.8045 159.909 90.1245 159.248C90.4552 158.587 90.9245 158.085 91.5325 157.744C92.1512 157.392 92.8765 157.216 93.7085 157.216C94.4978 157.216 95.1912 157.392 95.7885 157.744C96.3965 158.085 96.8712 158.587 97.2125 159.248C97.5645 159.909 97.7405 160.72 97.7405 161.68ZM91.3885 161.68C91.3885 162.32 91.4685 162.875 91.6285 163.344C91.7885 163.803 92.0392 164.155 92.3805 164.4C92.7218 164.645 93.1592 164.768 93.6925 164.768C94.2258 164.768 94.6632 164.645 95.0045 164.4C95.3458 164.155 95.5965 163.803 95.7565 163.344C95.9165 162.875 95.9965 162.32 95.9965 161.68C95.9965 161.019 95.9112 160.464 95.7405 160.016C95.5805 159.568 95.3298 159.227 94.9885 158.992C94.6578 158.747 94.2205 158.624 93.6765 158.624C92.8765 158.624 92.2952 158.891 91.9325 159.424C91.5698 159.957 91.3885 160.709 91.3885 161.68ZM98.9785 169.84C98.7118 169.84 98.4665 169.819 98.2425 169.776C98.0078 169.744 97.8052 169.701 97.6345 169.648V168.288C97.8052 168.331 97.9758 168.368 98.1465 168.4C98.3172 168.432 98.5092 168.448 98.7225 168.448C99.0532 168.448 99.3305 168.352 99.5545 168.16C99.7785 167.979 99.8905 167.627 99.8905 167.104V157.376H101.587V167.184C101.587 167.717 101.496 168.181 101.315 168.576C101.133 168.981 100.851 169.291 100.467 169.504C100.093 169.728 99.5972 169.84 98.9785 169.84ZM99.7785 155.072C99.7785 154.72 99.8692 154.469 100.051 154.32C100.243 154.171 100.477 154.096 100.755 154.096C101.011 154.096 101.235 154.171 101.427 154.32C101.619 154.469 101.715 154.72 101.715 155.072C101.715 155.413 101.619 155.664 101.427 155.824C101.235 155.973 101.011 156.048 100.755 156.048C100.477 156.048 100.243 155.973 100.051 155.824C99.8692 155.664 99.7785 155.413 99.7785 155.072ZM107.642 157.216C108.399 157.216 109.05 157.376 109.594 157.696C110.138 158.005 110.554 158.453 110.842 159.04C111.141 159.627 111.29 160.32 111.29 161.12V162.048H105.498C105.519 162.933 105.749 163.611 106.186 164.08C106.634 164.549 107.258 164.784 108.058 164.784C108.613 164.784 109.103 164.736 109.53 164.64C109.967 164.533 110.415 164.379 110.874 164.176V165.584C110.447 165.776 110.01 165.92 109.562 166.016C109.125 166.112 108.602 166.16 107.994 166.16C107.162 166.16 106.426 165.995 105.786 165.664C105.146 165.333 104.645 164.843 104.282 164.192C103.93 163.531 103.754 162.72 103.754 161.76C103.754 160.789 103.914 159.968 104.234 159.296C104.565 158.624 105.018 158.112 105.594 157.76C106.181 157.397 106.863 157.216 107.642 157.216ZM107.642 158.528C107.034 158.528 106.543 158.725 106.17 159.12C105.807 159.515 105.594 160.075 105.53 160.8H109.594C109.594 160.352 109.525 159.957 109.386 159.616C109.247 159.275 109.034 159.008 108.746 158.816C108.458 158.624 108.09 158.528 107.642 158.528ZM116.878 166.16C116.089 166.16 115.395 166.005 114.798 165.696C114.201 165.387 113.737 164.907 113.406 164.256C113.075 163.595 112.91 162.757 112.91 161.744C112.91 160.677 113.086 159.813 113.438 159.152C113.801 158.491 114.286 158.005 114.894 157.696C115.513 157.376 116.217 157.216 117.006 157.216C117.486 157.216 117.934 157.269 118.35 157.376C118.777 157.472 119.129 157.584 119.406 157.712L118.894 159.088C118.595 158.971 118.275 158.869 117.934 158.784C117.603 158.699 117.289 158.656 116.99 158.656C116.457 158.656 116.014 158.773 115.662 159.008C115.321 159.232 115.065 159.573 114.894 160.032C114.734 160.48 114.654 161.045 114.654 161.728C114.654 162.379 114.739 162.928 114.91 163.376C115.081 163.824 115.331 164.165 115.662 164.4C116.003 164.624 116.425 164.736 116.926 164.736C117.406 164.736 117.827 164.683 118.19 164.576C118.553 164.469 118.894 164.331 119.214 164.16V165.632C118.905 165.813 118.569 165.947 118.206 166.032C117.843 166.117 117.401 166.16 116.878 166.16ZM124.354 164.784C124.578 164.784 124.807 164.763 125.042 164.72C125.277 164.677 125.479 164.629 125.65 164.576V165.856C125.469 165.941 125.223 166.011 124.914 166.064C124.605 166.128 124.295 166.16 123.986 166.16C123.517 166.16 123.085 166.08 122.69 165.92C122.306 165.76 121.997 165.483 121.762 165.088C121.527 164.693 121.41 164.144 121.41 163.44V158.672H120.21V157.904L121.474 157.264L122.066 155.44H123.106V157.376H125.57V158.672H123.106V163.408C123.106 163.877 123.218 164.224 123.442 164.448C123.677 164.672 123.981 164.784 124.354 164.784ZM133.227 157.376V166H131.531V157.376H133.227ZM132.395 154.096C132.651 154.096 132.875 154.171 133.067 154.32C133.259 154.469 133.355 154.72 133.355 155.072C133.355 155.413 133.259 155.664 133.067 155.824C132.875 155.973 132.651 156.048 132.395 156.048C132.118 156.048 131.883 155.973 131.691 155.824C131.51 155.664 131.419 155.413 131.419 155.072C131.419 154.72 131.51 154.469 131.691 154.32C131.883 154.171 132.118 154.096 132.395 154.096ZM140.259 157.216C141.261 157.216 142.029 157.467 142.562 157.968C143.096 158.469 143.363 159.275 143.363 160.384V166H141.683V160.624C141.683 159.952 141.539 159.451 141.251 159.12C140.973 158.779 140.525 158.608 139.907 158.608C139.032 158.608 138.424 158.869 138.083 159.392C137.752 159.915 137.587 160.667 137.587 161.648V166H135.891V157.376H137.235L137.475 158.528H137.571C137.763 158.229 137.997 157.984 138.275 157.792C138.552 157.6 138.861 157.456 139.203 157.36C139.544 157.264 139.896 157.216 140.259 157.216ZM149.073 164.784C149.297 164.784 149.526 164.763 149.761 164.72C149.995 164.677 150.198 164.629 150.369 164.576V165.856C150.187 165.941 149.942 166.011 149.633 166.064C149.323 166.128 149.014 166.16 148.705 166.16C148.235 166.16 147.803 166.08 147.409 165.92C147.025 165.76 146.715 165.483 146.481 165.088C146.246 164.693 146.129 164.144 146.129 163.44V158.672H144.929V157.904L146.193 157.264L146.785 155.44H147.825V157.376H150.289V158.672H147.825V163.408C147.825 163.877 147.937 164.224 148.161 164.448C148.395 164.672 148.699 164.784 149.073 164.784ZM155.486 157.216C156.243 157.216 156.894 157.376 157.438 157.696C157.982 158.005 158.398 158.453 158.686 159.04C158.984 159.627 159.134 160.32 159.134 161.12V162.048H153.342C153.363 162.933 153.592 163.611 154.03 164.08C154.478 164.549 155.102 164.784 155.902 164.784C156.456 164.784 156.947 164.736 157.374 164.64C157.811 164.533 158.259 164.379 158.718 164.176V165.584C158.291 165.776 157.854 165.92 157.406 166.016C156.968 166.112 156.446 166.16 155.838 166.16C155.006 166.16 154.27 165.995 153.63 165.664C152.99 165.333 152.488 164.843 152.126 164.192C151.774 163.531 151.598 162.72 151.598 161.76C151.598 160.789 151.758 159.968 152.078 159.296C152.408 158.624 152.862 158.112 153.438 157.76C154.024 157.397 154.707 157.216 155.486 157.216ZM155.486 158.528C154.878 158.528 154.387 158.725 154.014 159.12C153.651 159.515 153.438 160.075 153.374 160.8H157.438C157.438 160.352 157.368 159.957 157.23 159.616C157.091 159.275 156.878 159.008 156.59 158.816C156.302 158.624 155.934 158.528 155.486 158.528ZM165.506 157.216C165.655 157.216 165.821 157.227 166.002 157.248C166.183 157.259 166.333 157.275 166.45 157.296L166.274 158.88C166.157 158.848 166.018 158.821 165.858 158.8C165.698 158.779 165.549 158.768 165.41 158.768C165.09 158.768 164.781 158.832 164.482 158.96C164.194 159.077 163.933 159.253 163.698 159.488C163.463 159.712 163.277 159.989 163.138 160.32C163.01 160.651 162.946 161.029 162.946 161.456V166H161.25V157.376H162.594L162.818 158.912H162.882C163.063 158.603 163.282 158.32 163.538 158.064C163.794 157.808 164.087 157.605 164.418 157.456C164.749 157.296 165.111 157.216 165.506 157.216ZM172.255 158.672H170.127V166H168.431V158.672H166.975V157.872L168.431 157.344V156.8C168.431 156.064 168.543 155.477 168.767 155.04C169.001 154.592 169.332 154.267 169.759 154.064C170.185 153.861 170.703 153.76 171.311 153.76C171.684 153.76 172.025 153.792 172.335 153.856C172.644 153.92 172.905 153.989 173.119 154.064L172.687 155.36C172.516 155.307 172.319 155.259 172.095 155.216C171.871 155.163 171.636 155.136 171.391 155.136C170.964 155.136 170.644 155.275 170.431 155.552C170.228 155.829 170.127 156.251 170.127 156.816V157.376H172.255V158.672ZM177.11 157.216C178.198 157.216 179.008 157.456 179.542 157.936C180.075 158.405 180.342 159.147 180.342 160.16V166H179.142L178.806 164.8H178.742C178.496 165.109 178.24 165.365 177.974 165.568C177.718 165.771 177.419 165.92 177.078 166.016C176.747 166.112 176.342 166.16 175.862 166.16C175.35 166.16 174.886 166.069 174.47 165.888C174.064 165.696 173.744 165.408 173.51 165.024C173.275 164.629 173.158 164.139 173.158 163.552C173.158 162.677 173.488 162.011 174.15 161.552C174.822 161.093 175.84 160.843 177.206 160.8L178.678 160.752V160.272C178.678 159.632 178.534 159.184 178.246 158.928C177.958 158.672 177.552 158.544 177.03 158.544C176.582 158.544 176.155 158.608 175.75 158.736C175.344 158.864 174.96 159.019 174.598 159.2L174.054 157.968C174.459 157.755 174.923 157.579 175.446 157.44C175.979 157.291 176.534 157.216 177.11 157.216ZM177.51 161.888C176.528 161.931 175.846 162.096 175.462 162.384C175.088 162.661 174.902 163.056 174.902 163.568C174.902 164.016 175.035 164.341 175.302 164.544C175.579 164.747 175.926 164.848 176.342 164.848C177.014 164.848 177.568 164.661 178.006 164.288C178.443 163.915 178.662 163.355 178.662 162.608V161.856L177.51 161.888ZM186.425 166.16C185.636 166.16 184.942 166.005 184.345 165.696C183.748 165.387 183.284 164.907 182.953 164.256C182.622 163.595 182.457 162.757 182.457 161.744C182.457 160.677 182.633 159.813 182.985 159.152C183.348 158.491 183.833 158.005 184.441 157.696C185.06 157.376 185.764 157.216 186.553 157.216C187.033 157.216 187.481 157.269 187.897 157.376C188.324 157.472 188.676 157.584 188.953 157.712L188.441 159.088C188.142 158.971 187.822 158.869 187.481 158.784C187.15 158.699 186.836 158.656 186.537 158.656C186.004 158.656 185.561 158.773 185.209 159.008C184.868 159.232 184.612 159.573 184.441 160.032C184.281 160.48 184.201 161.045 184.201 161.728C184.201 162.379 184.286 162.928 184.457 163.376C184.628 163.824 184.878 164.165 185.209 164.4C185.55 164.624 185.972 164.736 186.473 164.736C186.953 164.736 187.374 164.683 187.737 164.576C188.1 164.469 188.441 164.331 188.761 164.16V165.632C188.452 165.813 188.116 165.947 187.753 166.032C187.39 166.117 186.948 166.16 186.425 166.16ZM194.189 157.216C194.946 157.216 195.597 157.376 196.141 157.696C196.685 158.005 197.101 158.453 197.389 159.04C197.687 159.627 197.837 160.32 197.837 161.12V162.048H192.045C192.066 162.933 192.295 163.611 192.733 164.08C193.181 164.549 193.805 164.784 194.605 164.784C195.159 164.784 195.65 164.736 196.077 164.64C196.514 164.533 196.962 164.379 197.421 164.176V165.584C196.994 165.776 196.557 165.92 196.109 166.016C195.671 166.112 195.149 166.16 194.541 166.16C193.709 166.16 192.973 165.995 192.333 165.664C191.693 165.333 191.191 164.843 190.829 164.192C190.477 163.531 190.301 162.72 190.301 161.76C190.301 160.789 190.461 159.968 190.781 159.296C191.111 158.624 191.565 158.112 192.141 157.76C192.727 157.397 193.41 157.216 194.189 157.216ZM194.189 158.528C193.581 158.528 193.09 158.725 192.717 159.12C192.354 159.515 192.141 160.075 192.077 160.8H196.141C196.141 160.352 196.071 159.957 195.933 159.616C195.794 159.275 195.581 159.008 195.293 158.816C195.005 158.624 194.637 158.528 194.189 158.528ZM209.933 161.68C209.88 161.467 209.816 161.232 209.741 160.976C209.677 160.72 209.613 160.464 209.549 160.208C209.485 159.941 209.427 159.696 209.373 159.472C209.32 159.248 209.277 159.072 209.245 158.944H209.181C209.16 159.072 209.123 159.248 209.069 159.472C209.027 159.696 208.973 159.941 208.909 160.208C208.845 160.464 208.781 160.725 208.717 160.992C208.653 161.248 208.584 161.483 208.509 161.696L207.229 165.984H205.341L202.957 157.36H204.685L205.805 161.728C205.891 162.027 205.965 162.341 206.029 162.672C206.104 163.003 206.168 163.323 206.221 163.632C206.285 163.931 206.328 164.181 206.349 164.384H206.413C206.435 164.245 206.467 164.075 206.509 163.872C206.552 163.659 206.595 163.44 206.637 163.216C206.691 162.981 206.739 162.757 206.781 162.544C206.835 162.331 206.888 162.155 206.941 162.016L208.317 157.36H210.173L211.517 162.016C211.581 162.229 211.651 162.485 211.725 162.784C211.8 163.072 211.864 163.36 211.917 163.648C211.981 163.925 212.024 164.165 212.045 164.368H212.109C212.131 164.187 212.168 163.952 212.221 163.664C212.275 163.365 212.339 163.045 212.413 162.704C212.499 162.363 212.579 162.037 212.653 161.728L213.805 157.36H215.517L213.101 165.984H211.165L209.933 161.68ZM218.712 157.376V166H217.016V157.376H218.712ZM217.88 154.096C218.136 154.096 218.36 154.171 218.552 154.32C218.744 154.469 218.84 154.72 218.84 155.072C218.84 155.413 218.744 155.664 218.552 155.824C218.36 155.973 218.136 156.048 217.88 156.048C217.602 156.048 217.368 155.973 217.176 155.824C216.994 155.664 216.904 155.413 216.904 155.072C216.904 154.72 216.994 154.469 217.176 154.32C217.368 154.171 217.602 154.096 217.88 154.096ZM223.071 166H221.375V153.84H223.071V166ZM227.43 166H225.734V153.84H227.43V166ZM235.946 156.768C235.946 157.12 235.935 157.456 235.914 157.776C235.903 158.085 235.887 158.331 235.866 158.512H235.946C236.191 158.149 236.522 157.845 236.938 157.6C237.354 157.355 237.893 157.232 238.554 157.232C239.589 157.232 240.421 157.605 241.05 158.352C241.69 159.099 242.01 160.208 242.01 161.68C242.01 162.672 241.866 163.499 241.578 164.16C241.29 164.821 240.885 165.323 240.362 165.664C239.839 165.995 239.231 166.16 238.538 166.16C237.866 166.16 237.327 166.043 236.922 165.808C236.517 165.563 236.191 165.275 235.946 164.944H235.818L235.498 166H234.25V153.84H235.946V156.768ZM238.154 158.608C237.599 158.608 237.162 158.715 236.842 158.928C236.522 159.141 236.293 159.467 236.154 159.904C236.015 160.341 235.946 160.896 235.946 161.568V161.696C235.946 162.688 236.106 163.451 236.426 163.984C236.746 164.507 237.333 164.768 238.186 164.768C238.869 164.768 239.386 164.501 239.738 163.968C240.09 163.435 240.266 162.667 240.266 161.664C240.266 160.651 240.09 159.888 239.738 159.376C239.386 158.864 238.858 158.608 238.154 158.608ZM247.564 157.216C248.321 157.216 248.972 157.376 249.516 157.696C250.06 158.005 250.476 158.453 250.764 159.04C251.062 159.627 251.212 160.32 251.212 161.12V162.048H245.42C245.441 162.933 245.67 163.611 246.108 164.08C246.556 164.549 247.18 164.784 247.98 164.784C248.534 164.784 249.025 164.736 249.452 164.64C249.889 164.533 250.337 164.379 250.796 164.176V165.584C250.369 165.776 249.932 165.92 249.484 166.016C249.046 166.112 248.524 166.16 247.916 166.16C247.084 166.16 246.348 165.995 245.708 165.664C245.068 165.333 244.566 164.843 244.204 164.192C243.852 163.531 243.676 162.72 243.676 161.76C243.676 160.789 243.836 159.968 244.156 159.296C244.486 158.624 244.94 158.112 245.516 157.76C246.102 157.397 246.785 157.216 247.564 157.216ZM247.564 158.528C246.956 158.528 246.465 158.725 246.092 159.12C245.729 159.515 245.516 160.075 245.452 160.8H249.516C249.516 160.352 249.446 159.957 249.308 159.616C249.169 159.275 248.956 159.008 248.668 158.816C248.38 158.624 248.012 158.528 247.564 158.528ZM44.288 198.16C43.2533 198.16 42.416 197.787 41.776 197.04C41.1467 196.293 40.832 195.184 40.832 193.712C40.832 192.229 41.152 191.109 41.792 190.352C42.432 189.595 43.2747 189.216 44.32 189.216C44.7573 189.216 45.136 189.275 45.456 189.392C45.7867 189.499 46.0693 189.648 46.304 189.84C46.5493 190.032 46.7573 190.245 46.928 190.48H47.024C47.0027 190.331 46.976 190.117 46.944 189.84C46.912 189.552 46.896 189.296 46.896 189.072V185.84H48.592V198H47.264L46.976 196.848H46.896C46.736 197.093 46.5333 197.317 46.288 197.52C46.0533 197.712 45.7707 197.867 45.44 197.984C45.1093 198.101 44.7253 198.16 44.288 198.16ZM44.688 196.768C45.52 196.768 46.1067 196.539 46.448 196.08C46.7893 195.611 46.96 194.912 46.96 193.984V193.728C46.96 192.715 46.7947 191.941 46.464 191.408C46.144 190.875 45.5467 190.608 44.672 190.608C43.9787 190.608 43.456 190.891 43.104 191.456C42.752 192.011 42.576 192.773 42.576 193.744C42.576 194.715 42.752 195.461 43.104 195.984C43.456 196.507 43.984 196.768 44.688 196.768ZM54.6419 189.216C55.3992 189.216 56.0499 189.376 56.5939 189.696C57.1379 190.005 57.5539 190.453 57.8419 191.04C58.1405 191.627 58.2899 192.32 58.2899 193.12V194.048H52.4979C52.5192 194.933 52.7485 195.611 53.1859 196.08C53.6339 196.549 54.2579 196.784 55.0579 196.784C55.6125 196.784 56.1032 196.736 56.5299 196.64C56.9672 196.533 57.4152 196.379 57.8739 196.176V197.584C57.4472 197.776 57.0099 197.92 56.5619 198.016C56.1245 198.112 55.6019 198.16 54.9939 198.16C54.1619 198.16 53.4259 197.995 52.7859 197.664C52.1459 197.333 51.6445 196.843 51.2819 196.192C50.9299 195.531 50.7539 194.72 50.7539 193.76C50.7539 192.789 50.9139 191.968 51.2339 191.296C51.5645 190.624 52.0179 190.112 52.5939 189.76C53.1805 189.397 53.8632 189.216 54.6419 189.216ZM54.6419 190.528C54.0339 190.528 53.5432 190.725 53.1699 191.12C52.8072 191.515 52.5939 192.075 52.5299 192.8H56.5939C56.5939 192.352 56.5245 191.957 56.3859 191.616C56.2472 191.275 56.0339 191.008 55.7459 190.816C55.4579 190.624 55.0899 190.528 54.6419 190.528ZM66.1341 195.568C66.1341 196.133 65.9955 196.608 65.7181 196.992C65.4408 197.376 65.0408 197.669 64.5181 197.872C63.9955 198.064 63.3661 198.16 62.6301 198.16C62.0221 198.16 61.4995 198.112 61.0621 198.016C60.6355 197.931 60.2408 197.803 59.8781 197.632V196.144C60.2621 196.325 60.7048 196.491 61.2061 196.64C61.7075 196.779 62.1981 196.848 62.6781 196.848C63.3181 196.848 63.7768 196.747 64.0541 196.544C64.3421 196.341 64.4861 196.069 64.4861 195.728C64.4861 195.536 64.4328 195.365 64.3261 195.216C64.2195 195.056 64.0168 194.896 63.7181 194.736C63.4301 194.565 63.0035 194.373 62.4381 194.16C61.8941 193.936 61.4301 193.717 61.0461 193.504C60.6621 193.28 60.3688 193.019 60.1661 192.72C59.9635 192.411 59.8621 192.016 59.8621 191.536C59.8621 190.789 60.1608 190.219 60.7581 189.824C61.3661 189.419 62.1661 189.216 63.1581 189.216C63.6808 189.216 64.1715 189.269 64.6301 189.376C65.0995 189.472 65.5528 189.621 65.9901 189.824L65.4301 191.12C65.1848 191.003 64.9288 190.907 64.6621 190.832C64.4061 190.747 64.1448 190.677 63.8781 190.624C63.6221 190.571 63.3555 190.544 63.0781 190.544C62.5661 190.544 62.1768 190.624 61.9101 190.784C61.6435 190.944 61.5101 191.168 61.5101 191.456C61.5101 191.659 61.5688 191.835 61.6861 191.984C61.8141 192.133 62.0328 192.283 62.3421 192.432C62.6515 192.581 63.0728 192.763 63.6061 192.976C64.1395 193.179 64.5928 193.387 64.9661 193.6C65.3501 193.813 65.6381 194.075 65.8301 194.384C66.0328 194.693 66.1341 195.088 66.1341 195.568ZM69.8521 189.376V198H68.1561V189.376H69.8521ZM69.0201 186.096C69.2761 186.096 69.5001 186.171 69.6921 186.32C69.8841 186.469 69.9801 186.72 69.9801 187.072C69.9801 187.413 69.8841 187.664 69.6921 187.824C69.5001 187.973 69.2761 188.048 69.0201 188.048C68.7428 188.048 68.5081 187.973 68.3161 187.824C68.1348 187.664 68.0441 187.413 68.0441 187.072C68.0441 186.72 68.1348 186.469 68.3161 186.32C68.5081 186.171 68.7428 186.096 69.0201 186.096ZM75.4915 189.216C76.0462 189.216 76.5475 189.323 76.9955 189.536C77.4435 189.749 77.8222 190.075 78.1315 190.512H78.2115L78.4035 189.376H79.7795V198.112C79.7795 198.923 79.6355 199.605 79.3475 200.16C79.0595 200.715 78.6168 201.131 78.0195 201.408C77.4328 201.696 76.6915 201.84 75.7955 201.84C75.1768 201.84 74.6062 201.797 74.0835 201.712C73.5608 201.627 73.0808 201.493 72.6435 201.312V199.824C72.9528 199.973 73.2782 200.096 73.6195 200.192C73.9608 200.299 74.3235 200.373 74.7075 200.416C75.0915 200.469 75.4862 200.496 75.8915 200.496C76.5955 200.496 77.1395 200.293 77.5235 199.888C77.9075 199.493 78.0995 198.933 78.0995 198.208V197.92C78.0995 197.781 78.1048 197.6 78.1155 197.376C78.1262 197.141 78.1368 196.971 78.1475 196.864H78.0835C77.7848 197.312 77.4168 197.643 76.9795 197.856C76.5528 198.059 76.0568 198.16 75.4915 198.16C74.4035 198.16 73.5502 197.771 72.9315 196.992C72.3235 196.203 72.0195 195.109 72.0195 193.712C72.0195 192.773 72.1582 191.973 72.4355 191.312C72.7128 190.64 73.1075 190.123 73.6195 189.76C74.1422 189.397 74.7662 189.216 75.4915 189.216ZM75.8435 190.624C75.3955 190.624 75.0168 190.747 74.7075 190.992C74.3982 191.227 74.1635 191.573 74.0035 192.032C73.8435 192.491 73.7635 193.056 73.7635 193.728C73.7635 194.731 73.9395 195.493 74.2915 196.016C74.6542 196.539 75.1822 196.8 75.8755 196.8C76.2808 196.8 76.6222 196.747 76.8995 196.64C77.1875 196.533 77.4222 196.368 77.6035 196.144C77.7955 195.92 77.9342 195.637 78.0195 195.296C78.1155 194.944 78.1635 194.523 78.1635 194.032V193.712C78.1635 192.976 78.0782 192.384 77.9075 191.936C77.7475 191.477 77.4968 191.147 77.1555 190.944C76.8142 190.731 76.3768 190.624 75.8435 190.624ZM86.8054 189.216C87.808 189.216 88.576 189.467 89.1094 189.968C89.6427 190.469 89.9094 191.275 89.9094 192.384V198H88.2294V192.624C88.2294 191.952 88.0854 191.451 87.7974 191.12C87.52 190.779 87.072 190.608 86.4534 190.608C85.5787 190.608 84.9707 190.869 84.6294 191.392C84.2987 191.915 84.1334 192.667 84.1334 193.648V198H82.4374V189.376H83.7814L84.0214 190.528H84.1174C84.3094 190.229 84.544 189.984 84.8214 189.792C85.0987 189.6 85.408 189.456 85.7494 189.36C86.0907 189.264 86.4427 189.216 86.8054 189.216ZM95.9075 189.216C96.6648 189.216 97.3155 189.376 97.8595 189.696C98.4035 190.005 98.8195 190.453 99.1075 191.04C99.4062 191.627 99.5555 192.32 99.5555 193.12V194.048H93.7635C93.7848 194.933 94.0142 195.611 94.4515 196.08C94.8995 196.549 95.5235 196.784 96.3235 196.784C96.8782 196.784 97.3688 196.736 97.7955 196.64C98.2328 196.533 98.6808 196.379 99.1395 196.176V197.584C98.7128 197.776 98.2755 197.92 97.8275 198.016C97.3902 198.112 96.8675 198.16 96.2595 198.16C95.4275 198.16 94.6915 197.995 94.0515 197.664C93.4115 197.333 92.9102 196.843 92.5475 196.192C92.1955 195.531 92.0195 194.72 92.0195 193.76C92.0195 192.789 92.1795 191.968 92.4995 191.296C92.8302 190.624 93.2835 190.112 93.8595 189.76C94.4462 189.397 95.1288 189.216 95.9075 189.216ZM95.9075 190.528C95.2995 190.528 94.8088 190.725 94.4355 191.12C94.0728 191.515 93.8595 192.075 93.7955 192.8H97.8595C97.8595 192.352 97.7902 191.957 97.6515 191.616C97.5128 191.275 97.2995 191.008 97.0115 190.816C96.7235 190.624 96.3555 190.528 95.9075 190.528ZM104.632 198.16C103.597 198.16 102.76 197.787 102.12 197.04C101.49 196.293 101.176 195.184 101.176 193.712C101.176 192.229 101.496 191.109 102.136 190.352C102.776 189.595 103.618 189.216 104.664 189.216C105.101 189.216 105.48 189.275 105.8 189.392C106.13 189.499 106.413 189.648 106.648 189.84C106.893 190.032 107.101 190.245 107.272 190.48H107.368C107.346 190.331 107.32 190.117 107.288 189.84C107.256 189.552 107.24 189.296 107.24 189.072V185.84H108.936V198H107.608L107.32 196.848H107.24C107.08 197.093 106.877 197.317 106.632 197.52C106.397 197.712 106.114 197.867 105.784 197.984C105.453 198.101 105.069 198.16 104.632 198.16ZM105.032 196.768C105.864 196.768 106.45 196.539 106.792 196.08C107.133 195.611 107.304 194.912 107.304 193.984V193.728C107.304 192.715 107.138 191.941 106.808 191.408C106.488 190.875 105.89 190.608 105.016 190.608C104.322 190.608 103.8 190.891 103.448 191.456C103.096 192.011 102.92 192.773 102.92 193.744C102.92 194.715 103.096 195.461 103.448 195.984C103.8 196.507 104.328 196.768 105.032 196.768ZM119.958 190.672H117.83V198H116.134V190.672H114.678V189.872L116.134 189.344V188.8C116.134 188.064 116.246 187.477 116.47 187.04C116.705 186.592 117.035 186.267 117.462 186.064C117.889 185.861 118.406 185.76 119.014 185.76C119.387 185.76 119.729 185.792 120.038 185.856C120.347 185.92 120.609 185.989 120.822 186.064L120.39 187.36C120.219 187.307 120.022 187.259 119.798 187.216C119.574 187.163 119.339 187.136 119.094 187.136C118.667 187.136 118.347 187.275 118.134 187.552C117.931 187.829 117.83 188.251 117.83 188.816V189.376H119.958V190.672ZM123.158 189.376V198H121.462V189.376H123.158ZM122.326 186.096C122.582 186.096 122.806 186.171 122.998 186.32C123.19 186.469 123.286 186.72 123.286 187.072C123.286 187.413 123.19 187.664 122.998 187.824C122.806 187.973 122.582 188.048 122.326 188.048C122.049 188.048 121.814 187.973 121.622 187.824C121.441 187.664 121.35 187.413 121.35 187.072C121.35 186.72 121.441 186.469 121.622 186.32C121.814 186.171 122.049 186.096 122.326 186.096ZM130.068 189.216C130.218 189.216 130.383 189.227 130.564 189.248C130.746 189.259 130.895 189.275 131.012 189.296L130.836 190.88C130.719 190.848 130.58 190.821 130.42 190.8C130.26 190.779 130.111 190.768 129.972 190.768C129.652 190.768 129.343 190.832 129.044 190.96C128.756 191.077 128.495 191.253 128.26 191.488C128.026 191.712 127.839 191.989 127.7 192.32C127.572 192.651 127.508 193.029 127.508 193.456V198H125.812V189.376H127.156L127.38 190.912H127.444C127.626 190.603 127.844 190.32 128.1 190.064C128.356 189.808 128.65 189.605 128.98 189.456C129.311 189.296 129.674 189.216 130.068 189.216ZM138.337 195.568C138.337 196.133 138.199 196.608 137.921 196.992C137.644 197.376 137.244 197.669 136.721 197.872C136.199 198.064 135.569 198.16 134.833 198.16C134.225 198.16 133.703 198.112 133.265 198.016C132.839 197.931 132.444 197.803 132.081 197.632V196.144C132.465 196.325 132.908 196.491 133.409 196.64C133.911 196.779 134.401 196.848 134.881 196.848C135.521 196.848 135.98 196.747 136.257 196.544C136.545 196.341 136.689 196.069 136.689 195.728C136.689 195.536 136.636 195.365 136.529 195.216C136.423 195.056 136.22 194.896 135.921 194.736C135.633 194.565 135.207 194.373 134.641 194.16C134.097 193.936 133.633 193.717 133.249 193.504C132.865 193.28 132.572 193.019 132.369 192.72C132.167 192.411 132.065 192.016 132.065 191.536C132.065 190.789 132.364 190.219 132.961 189.824C133.569 189.419 134.369 189.216 135.361 189.216C135.884 189.216 136.375 189.269 136.833 189.376C137.303 189.472 137.756 189.621 138.193 189.824L137.633 191.12C137.388 191.003 137.132 190.907 136.865 190.832C136.609 190.747 136.348 190.677 136.081 190.624C135.825 190.571 135.559 190.544 135.281 190.544C134.769 190.544 134.38 190.624 134.113 190.784C133.847 190.944 133.713 191.168 133.713 191.456C133.713 191.659 133.772 191.835 133.889 191.984C134.017 192.133 134.236 192.283 134.545 192.432C134.855 192.581 135.276 192.763 135.809 192.976C136.343 193.179 136.796 193.387 137.169 193.6C137.553 193.813 137.841 194.075 138.033 194.384C138.236 194.693 138.337 195.088 138.337 195.568ZM143.463 196.784C143.687 196.784 143.917 196.763 144.151 196.72C144.386 196.677 144.589 196.629 144.759 196.576V197.856C144.578 197.941 144.333 198.011 144.023 198.064C143.714 198.128 143.405 198.16 143.095 198.16C142.626 198.16 142.194 198.08 141.799 197.92C141.415 197.76 141.106 197.483 140.871 197.088C140.637 196.693 140.519 196.144 140.519 195.44V190.672H139.319V189.904L140.583 189.264L141.175 187.44H142.215V189.376H144.679V190.672H142.215V195.408C142.215 195.877 142.327 196.224 142.551 196.448C142.786 196.672 143.09 196.784 143.463 196.784ZM148.372 196.32C148.276 196.693 148.154 197.099 148.004 197.536C147.855 197.973 147.695 198.405 147.524 198.832C147.354 199.269 147.178 199.68 146.996 200.064H145.764C145.871 199.648 145.972 199.205 146.068 198.736C146.175 198.277 146.271 197.824 146.356 197.376C146.442 196.928 146.511 196.517 146.564 196.144H148.26L148.372 196.32ZM162.616 193.68C162.616 194.395 162.52 195.029 162.328 195.584C162.136 196.139 161.864 196.608 161.512 196.992C161.16 197.376 160.733 197.669 160.232 197.872C159.73 198.064 159.165 198.16 158.536 198.16C157.96 198.16 157.426 198.064 156.936 197.872C156.445 197.669 156.018 197.376 155.656 196.992C155.304 196.608 155.026 196.139 154.824 195.584C154.621 195.029 154.52 194.389 154.52 193.664C154.52 192.715 154.68 191.909 155 191.248C155.33 190.587 155.8 190.085 156.408 189.744C157.026 189.392 157.752 189.216 158.584 189.216C159.373 189.216 160.066 189.392 160.664 189.744C161.272 190.085 161.746 190.587 162.088 191.248C162.44 191.909 162.616 192.72 162.616 193.68ZM156.264 193.68C156.264 194.32 156.344 194.875 156.504 195.344C156.664 195.803 156.914 196.155 157.256 196.4C157.597 196.645 158.034 196.768 158.568 196.768C159.101 196.768 159.538 196.645 159.88 196.4C160.221 196.155 160.472 195.803 160.632 195.344C160.792 194.875 160.872 194.32 160.872 193.68C160.872 193.019 160.786 192.464 160.616 192.016C160.456 191.568 160.205 191.227 159.864 190.992C159.533 190.747 159.096 190.624 158.552 190.624C157.752 190.624 157.17 190.891 156.808 191.424C156.445 191.957 156.264 192.709 156.264 193.68ZM172.19 189.376V198H170.83L170.59 196.864H170.51C170.328 197.163 170.094 197.408 169.806 197.6C169.518 197.792 169.203 197.931 168.862 198.016C168.52 198.112 168.168 198.16 167.806 198.16C167.134 198.16 166.563 198.053 166.094 197.84C165.635 197.616 165.283 197.275 165.038 196.816C164.803 196.347 164.686 195.749 164.686 195.024V189.376H166.398V194.768C166.398 195.44 166.536 195.941 166.814 196.272C167.102 196.603 167.544 196.768 168.141 196.768C168.739 196.768 169.208 196.651 169.55 196.416C169.891 196.181 170.131 195.84 170.27 195.392C170.419 194.933 170.494 194.384 170.494 193.744V189.376H172.19ZM179.1 189.216C179.249 189.216 179.414 189.227 179.596 189.248C179.777 189.259 179.926 189.275 180.044 189.296L179.868 190.88C179.75 190.848 179.612 190.821 179.452 190.8C179.292 190.779 179.142 190.768 179.004 190.768C178.684 190.768 178.374 190.832 178.076 190.96C177.788 191.077 177.526 191.253 177.292 191.488C177.057 191.712 176.87 191.989 176.732 192.32C176.604 192.651 176.54 193.029 176.54 193.456V198H174.844V189.376H176.188L176.412 190.912H176.476C176.657 190.603 176.876 190.32 177.132 190.064C177.388 189.808 177.681 189.605 178.012 189.456C178.342 189.296 178.705 189.216 179.1 189.216ZM190.005 190.672H187.877V198H186.181V190.672H184.725V189.872L186.181 189.344V188.8C186.181 188.064 186.293 187.477 186.517 187.04C186.751 186.592 187.082 186.267 187.509 186.064C187.935 185.861 188.453 185.76 189.061 185.76C189.434 185.76 189.775 185.792 190.085 185.856C190.394 185.92 190.655 185.989 190.869 186.064L190.437 187.36C190.266 187.307 190.069 187.259 189.845 187.216C189.621 187.163 189.386 187.136 189.141 187.136C188.714 187.136 188.394 187.275 188.181 187.552C187.978 187.829 187.877 188.251 187.877 188.816V189.376H190.005V190.672ZM194.86 189.216C195.948 189.216 196.758 189.456 197.292 189.936C197.825 190.405 198.092 191.147 198.092 192.16V198H196.892L196.556 196.8H196.492C196.246 197.109 195.99 197.365 195.724 197.568C195.468 197.771 195.169 197.92 194.828 198.016C194.497 198.112 194.092 198.16 193.612 198.16C193.1 198.16 192.636 198.069 192.22 197.888C191.814 197.696 191.494 197.408 191.26 197.024C191.025 196.629 190.908 196.139 190.908 195.552C190.908 194.677 191.238 194.011 191.9 193.552C192.572 193.093 193.59 192.843 194.956 192.8L196.428 192.752V192.272C196.428 191.632 196.284 191.184 195.996 190.928C195.708 190.672 195.302 190.544 194.78 190.544C194.332 190.544 193.905 190.608 193.5 190.736C193.094 190.864 192.71 191.019 192.348 191.2L191.804 189.968C192.209 189.755 192.673 189.579 193.196 189.44C193.729 189.291 194.284 189.216 194.86 189.216ZM195.26 193.888C194.278 193.931 193.596 194.096 193.212 194.384C192.838 194.661 192.652 195.056 192.652 195.568C192.652 196.016 192.785 196.341 193.052 196.544C193.329 196.747 193.676 196.848 194.092 196.848C194.764 196.848 195.318 196.661 195.756 196.288C196.193 195.915 196.412 195.355 196.412 194.608V193.856L195.26 193.888ZM202.639 198L199.375 189.376H201.167L202.959 194.416C203.034 194.629 203.108 194.869 203.183 195.136C203.268 195.403 203.343 195.659 203.407 195.904C203.471 196.149 203.514 196.363 203.535 196.544H203.599C203.631 196.363 203.679 196.149 203.743 195.904C203.818 195.648 203.898 195.392 203.983 195.136C204.068 194.869 204.143 194.629 204.207 194.416L205.999 189.376H207.791L204.511 198H202.639ZM216.725 193.68C216.725 194.395 216.629 195.029 216.437 195.584C216.245 196.139 215.973 196.608 215.621 196.992C215.269 197.376 214.842 197.669 214.341 197.872C213.84 198.064 213.274 198.16 212.645 198.16C212.069 198.16 211.536 198.064 211.045 197.872C210.554 197.669 210.128 197.376 209.765 196.992C209.413 196.608 209.136 196.139 208.933 195.584C208.73 195.029 208.629 194.389 208.629 193.664C208.629 192.715 208.789 191.909 209.109 191.248C209.44 190.587 209.909 190.085 210.517 189.744C211.136 189.392 211.861 189.216 212.693 189.216C213.482 189.216 214.176 189.392 214.773 189.744C215.381 190.085 215.856 190.587 216.197 191.248C216.549 191.909 216.725 192.72 216.725 193.68ZM210.373 193.68C210.373 194.32 210.453 194.875 210.613 195.344C210.773 195.803 211.024 196.155 211.365 196.4C211.706 196.645 212.144 196.768 212.677 196.768C213.21 196.768 213.648 196.645 213.989 196.4C214.33 196.155 214.581 195.803 214.741 195.344C214.901 194.875 214.981 194.32 214.981 193.68C214.981 193.019 214.896 192.464 214.725 192.016C214.565 191.568 214.314 191.227 213.973 190.992C213.642 190.747 213.205 190.624 212.661 190.624C211.861 190.624 211.28 190.891 210.917 191.424C210.554 191.957 210.373 192.709 210.373 193.68ZM223.131 189.216C223.28 189.216 223.446 189.227 223.627 189.248C223.808 189.259 223.958 189.275 224.075 189.296L223.899 190.88C223.782 190.848 223.643 190.821 223.483 190.8C223.323 190.779 223.174 190.768 223.035 190.768C222.715 190.768 222.406 190.832 222.107 190.96C221.819 191.077 221.558 191.253 221.323 191.488C221.088 191.712 220.902 191.989 220.763 192.32C220.635 192.651 220.571 193.029 220.571 193.456V198H218.875V189.376H220.219L220.443 190.912H220.507C220.688 190.603 220.907 190.32 221.163 190.064C221.419 189.808 221.712 189.605 222.043 189.456C222.374 189.296 222.736 189.216 223.131 189.216ZM227.368 189.376V198H225.672V189.376H227.368ZM226.536 186.096C226.792 186.096 227.016 186.171 227.208 186.32C227.4 186.469 227.496 186.72 227.496 187.072C227.496 187.413 227.4 187.664 227.208 187.824C227.016 187.973 226.792 188.048 226.536 188.048C226.258 188.048 226.024 187.973 225.832 187.824C225.65 187.664 225.56 187.413 225.56 187.072C225.56 186.72 225.65 186.469 225.832 186.32C226.024 186.171 226.258 186.096 226.536 186.096ZM233.135 196.784C233.359 196.784 233.588 196.763 233.823 196.72C234.058 196.677 234.26 196.629 234.431 196.576V197.856C234.25 197.941 234.004 198.011 233.695 198.064C233.386 198.128 233.076 198.16 232.767 198.16C232.298 198.16 231.866 198.08 231.471 197.92C231.087 197.76 230.778 197.483 230.543 197.088C230.308 196.693 230.191 196.144 230.191 195.44V190.672H228.991V189.904L230.255 189.264L230.847 187.44H231.887V189.376H234.351V190.672H231.887V195.408C231.887 195.877 231.999 196.224 232.223 196.448C232.458 196.672 232.762 196.784 233.135 196.784ZM239.548 189.216C240.305 189.216 240.956 189.376 241.5 189.696C242.044 190.005 242.46 190.453 242.748 191.04C243.047 191.627 243.196 192.32 243.196 193.12V194.048H237.404C237.425 194.933 237.655 195.611 238.092 196.08C238.54 196.549 239.164 196.784 239.964 196.784C240.519 196.784 241.009 196.736 241.436 196.64C241.873 196.533 242.321 196.379 242.78 196.176V197.584C242.353 197.776 241.916 197.92 241.468 198.016C241.031 198.112 240.508 198.16 239.9 198.16C239.068 198.16 238.332 197.995 237.692 197.664C237.052 197.333 236.551 196.843 236.188 196.192C235.836 195.531 235.66 194.72 235.66 193.76C235.66 192.789 235.82 191.968 236.14 191.296C236.471 190.624 236.924 190.112 237.5 189.76C238.087 189.397 238.769 189.216 239.548 189.216ZM239.548 190.528C238.94 190.528 238.449 190.725 238.076 191.12C237.713 191.515 237.5 192.075 237.436 192.8H241.5C241.5 192.352 241.431 191.957 241.292 191.616C241.153 191.275 240.94 191.008 240.652 190.816C240.364 190.624 239.996 190.528 239.548 190.528ZM252.573 196.784C252.797 196.784 253.026 196.763 253.261 196.72C253.495 196.677 253.698 196.629 253.869 196.576V197.856C253.687 197.941 253.442 198.011 253.133 198.064C252.823 198.128 252.514 198.16 252.205 198.16C251.735 198.16 251.303 198.08 250.909 197.92C250.525 197.76 250.215 197.483 249.981 197.088C249.746 196.693 249.629 196.144 249.629 195.44V190.672H248.429V189.904L249.693 189.264L250.285 187.44H251.325V189.376H253.789V190.672H251.325V195.408C251.325 195.877 251.437 196.224 251.661 196.448C251.895 196.672 252.199 196.784 252.573 196.784ZM263.194 193.68C263.194 194.395 263.098 195.029 262.906 195.584C262.714 196.139 262.442 196.608 262.09 196.992C261.738 197.376 261.311 197.669 260.81 197.872C260.308 198.064 259.743 198.16 259.114 198.16C258.538 198.16 258.004 198.064 257.514 197.872C257.023 197.669 256.596 197.376 256.234 196.992C255.882 196.608 255.604 196.139 255.402 195.584C255.199 195.029 255.098 194.389 255.098 193.664C255.098 192.715 255.258 191.909 255.578 191.248C255.908 190.587 256.378 190.085 256.986 189.744C257.604 189.392 258.33 189.216 259.162 189.216C259.951 189.216 260.644 189.392 261.242 189.744C261.85 190.085 262.324 190.587 262.666 191.248C263.018 191.909 263.194 192.72 263.194 193.68ZM256.842 193.68C256.842 194.32 256.922 194.875 257.082 195.344C257.242 195.803 257.492 196.155 257.834 196.4C258.175 196.645 258.612 196.768 259.146 196.768C259.679 196.768 260.116 196.645 260.458 196.4C260.799 196.155 261.05 195.803 261.21 195.344C261.37 194.875 261.45 194.32 261.45 193.68C261.45 193.019 261.364 192.464 261.194 192.016C261.034 191.568 260.783 191.227 260.442 190.992C260.111 190.747 259.674 190.624 259.13 190.624C258.33 190.624 257.748 190.891 257.386 191.424C257.023 191.957 256.842 192.709 256.842 193.68ZM272.944 193.68C272.944 194.395 272.848 195.029 272.656 195.584C272.464 196.139 272.192 196.608 271.84 196.992C271.488 197.376 271.061 197.669 270.56 197.872C270.058 198.064 269.493 198.16 268.864 198.16C268.288 198.16 267.754 198.064 267.264 197.872C266.773 197.669 266.346 197.376 265.984 196.992C265.632 196.608 265.354 196.139 265.152 195.584C264.949 195.029 264.848 194.389 264.848 193.664C264.848 192.715 265.008 191.909 265.328 191.248C265.658 190.587 266.128 190.085 266.736 189.744C267.354 189.392 268.08 189.216 268.912 189.216C269.701 189.216 270.394 189.392 270.992 189.744C271.6 190.085 272.074 190.587 272.416 191.248C272.768 191.909 272.944 192.72 272.944 193.68ZM266.592 193.68C266.592 194.32 266.672 194.875 266.832 195.344C266.992 195.803 267.242 196.155 267.584 196.4C267.925 196.645 268.362 196.768 268.896 196.768C269.429 196.768 269.866 196.645 270.208 196.4C270.549 196.155 270.8 195.803 270.96 195.344C271.12 194.875 271.2 194.32 271.2 193.68C271.2 193.019 271.114 192.464 270.944 192.016C270.784 191.568 270.533 191.227 270.192 190.992C269.861 190.747 269.424 190.624 268.88 190.624C268.08 190.624 267.498 190.891 267.136 191.424C266.773 191.957 266.592 192.709 266.592 193.68ZM276.79 198H275.094V185.84H276.79V198ZM43.024 221.376V230H41.328V221.376H43.024ZM42.192 218.096C42.448 218.096 42.672 218.171 42.864 218.32C43.056 218.469 43.152 218.72 43.152 219.072C43.152 219.413 43.056 219.664 42.864 219.824C42.672 219.973 42.448 220.048 42.192 220.048C41.9147 220.048 41.68 219.973 41.488 219.824C41.3067 219.664 41.216 219.413 41.216 219.072C41.216 218.72 41.3067 218.469 41.488 218.32C41.68 218.171 41.9147 218.096 42.192 218.096ZM51.4154 227.568C51.4154 228.133 51.2767 228.608 50.9994 228.992C50.722 229.376 50.322 229.669 49.7994 229.872C49.2767 230.064 48.6474 230.16 47.9114 230.16C47.3034 230.16 46.7807 230.112 46.3434 230.016C45.9167 229.931 45.522 229.803 45.1594 229.632V228.144C45.5434 228.325 45.986 228.491 46.4874 228.64C46.9887 228.779 47.4794 228.848 47.9594 228.848C48.5994 228.848 49.058 228.747 49.3354 228.544C49.6234 228.341 49.7674 228.069 49.7674 227.728C49.7674 227.536 49.714 227.365 49.6074 227.216C49.5007 227.056 49.298 226.896 48.9994 226.736C48.7114 226.565 48.2847 226.373 47.7194 226.16C47.1754 225.936 46.7114 225.717 46.3274 225.504C45.9434 225.28 45.65 225.019 45.4474 224.72C45.2447 224.411 45.1434 224.016 45.1434 223.536C45.1434 222.789 45.442 222.219 46.0394 221.824C46.6474 221.419 47.4474 221.216 48.4394 221.216C48.962 221.216 49.4527 221.269 49.9114 221.376C50.3807 221.472 50.834 221.621 51.2714 221.824L50.7114 223.12C50.466 223.003 50.21 222.907 49.9434 222.832C49.6874 222.747 49.426 222.677 49.1594 222.624C48.9034 222.571 48.6367 222.544 48.3594 222.544C47.8474 222.544 47.458 222.624 47.1914 222.784C46.9247 222.944 46.7914 223.168 46.7914 223.456C46.7914 223.659 46.85 223.835 46.9674 223.984C47.0954 224.133 47.314 224.283 47.6234 224.432C47.9327 224.581 48.354 224.763 48.8874 224.976C49.4207 225.179 49.874 225.387 50.2474 225.6C50.6314 225.813 50.9194 226.075 51.1114 226.384C51.314 226.693 51.4154 227.088 51.4154 227.568ZM59.4976 230H57.7856V218.576H64.2176V220.048H59.4976V223.776H63.9136V225.248H59.4976V230ZM67.7428 221.376V230H66.0468V221.376H67.7428ZM66.9108 218.096C67.1668 218.096 67.3908 218.171 67.5828 218.32C67.7748 218.469 67.8708 218.72 67.8708 219.072C67.8708 219.413 67.7748 219.664 67.5828 219.824C67.3908 219.973 67.1668 220.048 66.9108 220.048C66.6334 220.048 66.3988 219.973 66.2068 219.824C66.0254 219.664 65.9348 219.413 65.9348 219.072C65.9348 218.72 66.0254 218.469 66.2068 218.32C66.3988 218.171 66.6334 218.096 66.9108 218.096ZM73.3821 221.216C73.9368 221.216 74.4381 221.323 74.8861 221.536C75.3341 221.749 75.7128 222.075 76.0221 222.512H76.1021L76.2941 221.376H77.6701V230.112C77.6701 230.923 77.5261 231.605 77.2381 232.16C76.9501 232.715 76.5075 233.131 75.9101 233.408C75.3235 233.696 74.5821 233.84 73.6861 233.84C73.0675 233.84 72.4968 233.797 71.9741 233.712C71.4515 233.627 70.9715 233.493 70.5341 233.312V231.824C70.8435 231.973 71.1688 232.096 71.5101 232.192C71.8515 232.299 72.2141 232.373 72.5981 232.416C72.9821 232.469 73.3768 232.496 73.7821 232.496C74.4861 232.496 75.0301 232.293 75.4141 231.888C75.7981 231.493 75.9901 230.933 75.9901 230.208V229.92C75.9901 229.781 75.9955 229.6 76.0061 229.376C76.0168 229.141 76.0275 228.971 76.0381 228.864H75.9741C75.6755 229.312 75.3075 229.643 74.8701 229.856C74.4435 230.059 73.9475 230.16 73.3821 230.16C72.2941 230.16 71.4408 229.771 70.8221 228.992C70.2141 228.203 69.9101 227.109 69.9101 225.712C69.9101 224.773 70.0488 223.973 70.3261 223.312C70.6035 222.64 70.9981 222.123 71.5101 221.76C72.0328 221.397 72.6568 221.216 73.3821 221.216ZM73.7341 222.624C73.2861 222.624 72.9075 222.747 72.5981 222.992C72.2888 223.227 72.0541 223.573 71.8941 224.032C71.7341 224.491 71.6541 225.056 71.6541 225.728C71.6541 226.731 71.8301 227.493 72.1821 228.016C72.5448 228.539 73.0728 228.8 73.7661 228.8C74.1715 228.8 74.5128 228.747 74.7901 228.64C75.0781 228.533 75.3128 228.368 75.4941 228.144C75.6861 227.92 75.8248 227.637 75.9101 227.296C76.0061 226.944 76.0541 226.523 76.0541 226.032V225.712C76.0541 224.976 75.9688 224.384 75.7981 223.936C75.6381 223.477 75.3875 223.147 75.0461 222.944C74.7048 222.731 74.2675 222.624 73.7341 222.624ZM89.992 221.216C90.9627 221.216 91.6933 221.467 92.184 221.968C92.6747 222.469 92.92 223.275 92.92 224.384V230H91.224V224.608C91.224 223.947 91.0907 223.451 90.824 223.12C90.568 222.779 90.1627 222.608 89.608 222.608C88.84 222.608 88.2907 222.848 87.96 223.328C87.6293 223.797 87.464 224.48 87.464 225.376V230H85.784V224.608C85.784 224.171 85.72 223.803 85.592 223.504C85.4747 223.205 85.2987 222.981 85.064 222.832C84.8293 222.683 84.5253 222.608 84.152 222.608C83.6187 222.608 83.1973 222.725 82.888 222.96C82.5787 223.195 82.3547 223.541 82.216 224C82.088 224.448 82.024 224.997 82.024 225.648V230H80.328V221.376H81.672L81.912 222.528H82.008C82.1893 222.229 82.408 221.984 82.664 221.792C82.9307 221.6 83.224 221.456 83.544 221.36C83.864 221.264 84.1947 221.216 84.536 221.216C85.1867 221.216 85.736 221.333 86.184 221.568C86.632 221.792 86.9573 222.139 87.16 222.608H87.288C87.5653 222.128 87.9493 221.776 88.44 221.552C88.9307 221.328 89.448 221.216 89.992 221.216ZM98.8595 221.216C99.9475 221.216 100.758 221.456 101.292 221.936C101.825 222.405 102.092 223.147 102.092 224.16V230H100.892L100.556 228.8H100.492C100.246 229.109 99.9902 229.365 99.7235 229.568C99.4675 229.771 99.1688 229.92 98.8275 230.016C98.4968 230.112 98.0915 230.16 97.6115 230.16C97.0995 230.16 96.6355 230.069 96.2195 229.888C95.8142 229.696 95.4942 229.408 95.2595 229.024C95.0248 228.629 94.9075 228.139 94.9075 227.552C94.9075 226.677 95.2382 226.011 95.8995 225.552C96.5715 225.093 97.5902 224.843 98.9555 224.8L100.428 224.752V224.272C100.428 223.632 100.284 223.184 99.9955 222.928C99.7075 222.672 99.3022 222.544 98.7795 222.544C98.3315 222.544 97.9048 222.608 97.4995 222.736C97.0942 222.864 96.7102 223.019 96.3475 223.2L95.8035 221.968C96.2088 221.755 96.6728 221.579 97.1955 221.44C97.7288 221.291 98.2835 221.216 98.8595 221.216ZM99.2595 225.888C98.2782 225.931 97.5955 226.096 97.2115 226.384C96.8382 226.661 96.6515 227.056 96.6515 227.568C96.6515 228.016 96.7848 228.341 97.0515 228.544C97.3288 228.747 97.6755 228.848 98.0915 228.848C98.7635 228.848 99.3182 228.661 99.7555 228.288C100.193 227.915 100.412 227.355 100.412 226.608V225.856L99.2595 225.888ZM104.463 229.056C104.463 228.64 104.57 228.347 104.783 228.176C104.996 228.005 105.252 227.92 105.551 227.92C105.86 227.92 106.122 228.005 106.335 228.176C106.548 228.347 106.655 228.64 106.655 229.056C106.655 229.472 106.548 229.771 106.335 229.952C106.122 230.133 105.86 230.224 105.551 230.224C105.252 230.224 104.996 230.133 104.783 229.952C104.57 229.771 104.463 229.472 104.463 229.056Z" fill="white" fill-opacity="0.6"/>
</svg>
